<svg id="Layer_1" data-name="Layer 1" xmlns="http://www.w3.org/2000/svg" viewBox="0 0 270.25 107.75"><title>21</title><polygon points="37.21 101.2 37.21 54.57 5.05 8.1 8.32 5.64 39.25 50.41 70.18 5.64 73.46 8.1 41.3 54.57 41.3 101.2 37.21 101.2"/><path d="M72.09,8.32,40.3,54.26V100.2H38.21V54.26L6.42,8.32,8.09,7.07l31.16,45.1L70.42,7.07Z"/><path d="M93.19,102.11a22.32,22.32,0,0,1-16-6.49,21.84,21.84,0,0,1-6.58-16V59.14A22.55,22.55,0,0,1,93.19,36.53,22.65,22.65,0,0,1,115.8,59.14v20.5a21.71,21.71,0,0,1-6.63,16A22.26,22.26,0,0,1,93.19,102.11Zm0-61.56A18,18,0,0,0,80,46a18.23,18.23,0,0,0-5.35,13.16v20.5A18.39,18.39,0,0,0,93.19,98.23a17.8,17.8,0,0,0,13.1-5.42,18,18,0,0,0,5.42-13.17V59.14A18,18,0,0,0,106.29,46,17.79,17.79,0,0,0,93.19,40.55Z"/><path d="M114.8,79.64a20.65,20.65,0,0,1-6.34,15.26,22,22,0,0,1-30.6,0,20.78,20.78,0,0,1-6.28-15.26V59.14A21.54,21.54,0,0,1,93.19,37.53,21.65,21.65,0,0,1,114.8,59.14Zm-2.09,0V59.14A18.88,18.88,0,0,0,107,45.27a18.69,18.69,0,0,0-13.81-5.72,18.9,18.9,0,0,0-13.87,5.72,19.17,19.17,0,0,0-5.64,13.87v20.5A19.39,19.39,0,0,0,93.19,99.23,18.69,18.69,0,0,0,107,93.51,18.89,18.89,0,0,0,112.71,79.64Z"/><rect x="130.17" y="97.48" width="13.25" height="4.09"/><path d="M142.42,100.57H131.16V98.48h11.26Z"/><path d="M158.35,102.11V6.69h4.1V36.53h21.09a20,20,0,0,1,20,20V82.22a19.37,19.37,0,0,1-5.87,14.16,19.64,19.64,0,0,1-14.16,5.73Zm25.19-3.88a15.89,15.89,0,0,0,15.94-16V56.56a15.89,15.89,0,0,0-15.94-16H162.45V98.23Z"/><path d="M202.57,82.22A18.32,18.32,0,0,1,197,95.67a18.56,18.56,0,0,1-13.46,5.44H159.35V7.69h2.1V37.53h22.09a19,19,0,0,1,19,19Zm-2.09,0V56.56a16.9,16.9,0,0,0-16.94-17H161.45V99.23h22.09a16.9,16.9,0,0,0,16.94-17Z"/><path d="M230.3,101.2V37.51h4.09V101.2Zm0-87.42V6.69h4.09v7.09Z"/><path d="M233.39,12.78H231.3V7.69h2.09Zm0,87.42H231.3V38.51h2.09Z"/><path d="M261.11,101.2V37.51h4.09V101.2Zm0-87.42V6.69h4.09v7.09Z"/><path d="M264.2,12.78h-2.09V7.69h2.09Zm0,87.42h-2.09V38.51h2.09Z"/></svg>